<?xml version="1.0" standalone="no"?>
<!DOCTYPE svg PUBLIC "-//W3C//DTD SVG 20010904//EN"
 "http://www.w3.org/TR/2001/REC-SVG-20010904/DTD/svg10.dtd">
<svg version="1.0" xmlns="http://www.w3.org/2000/svg"
 width="300.000000pt" height="300.000000pt" viewBox="0 0 300.000000 300.000000"
 preserveAspectRatio="xMidYMid meet">
<metadata>
Created by potrace 1.10, written by Peter Selinger 2001-2011
</metadata>
<g transform="translate(0.000000,300.000000) scale(0.100000,-0.100000)"
fill="#000000" stroke="none">
<path d="M1800 2845 c-82 -37 -111 -89 -134 -240 -32 -208 -116 -700 -154
-910 -27 -146 -42 -204 -47 -190 -68 168 -333 758 -351 783 -74 97 -250 102
-374 11 -60 -45 -80 -89 -136 -306 -149 -573 -354 -1507 -354 -1612 0 -224
311 -369 462 -214 51 52 61 80 103 298 20 105 65 322 101 484 35 162 63 299
61 305 -9 28 -39 -55 -72 -204 -20 -91 -42 -192 -49 -225 -17 -74 -36 -169
-81 -395 -40 -198 -59 -239 -128 -271 -77 -34 -194 -20 -268 33 -14 11 -40 44
-59 74 -51 85 -51 96 37 524 85 419 248 1109 315 1340 40 137 144 209 286 197
73 -6 103 -23 143 -83 23 -35 95 -195 270 -602 29 -68 66 -136 81 -150 26 -27
27 -28 29 -177 5 -376 65 -655 184 -851 19 -32 32 -61 29 -66 -9 -15 -71 -36
-118 -41 -103 -11 -178 35 -226 139 -16 36 -70 158 -119 272 -103 239 -171
391 -196 444 -21 43 -51 62 -39 25 20 -67 348 -806 370 -834 40 -53 97 -77
184 -77 58 0 87 5 127 23 29 13 57 28 62 35 6 7 -5 33 -35 78 -104 155 -161
368 -185 681 -12 170 -5 359 17 427 44 140 233 213 370 145 66 -33 93 -63 115
-127 10 -29 18 -49 19 -44 0 4 22 139 50 300 88 513 112 686 107 753 -7 99
-67 182 -170 235 -56 28 -177 35 -227 13z m211 -43 c52 -23 110 -78 133 -127
37 -78 34 -117 -60 -675 -61 -365 -53 -341 -97 -299 -73 70 -224 91 -322 45
-27 -12 -64 -35 -81 -49 -17 -15 -33 -24 -36 -21 -5 4 13 119 66 414 14 74 41
243 62 375 43 274 54 305 124 343 38 20 55 23 105 19 33 -3 81 -14 106 -25z"/>
<path d="M1727 1646 c-46 -17 -83 -49 -105 -91 -36 -69 -26 -451 19 -681 65
-338 218 -538 430 -562 396 -45 707 318 760 888 16 164 3 293 -34 349 -64 97
-225 108 -290 20 -17 -24 -19 -47 -21 -245 -2 -189 -5 -230 -24 -299 -43 -155
-113 -267 -207 -330 -107 -71 -173 -54 -226 60 -56 118 -70 218 -76 520 -6
298 -10 319 -68 355 -43 27 -111 34 -158 16z m130 -48 c15 -7 33 -24 39 -38 8
-16 14 -119 17 -275 7 -319 25 -430 88 -556 31 -62 62 -92 114 -109 45 -15 92
-1 161 46 176 121 264 369 252 708 -6 154 0 179 43 202 70 36 161 6 203 -66
19 -32 21 -51 20 -205 0 -134 -5 -190 -22 -267 -64 -293 -180 -492 -352 -602
-105 -68 -177 -89 -304 -88 -67 1 -88 5 -141 31 -143 70 -234 218 -289 463
-50 225 -63 632 -23 706 34 63 121 85 194 50z"/>
</g>
</svg>
